<svg width="33" height="32" viewBox="0 0 33 32" fill="none" xmlns="http://www.w3.org/2000/svg">
<g id="1.TH.Emojis">
<g id="Vector">
<path d="M16.2143 29.3333C23.5781 29.3333 29.5476 23.3638 29.5476 16C29.5476 8.63619 23.5781 2.66666 16.2143 2.66666C8.85052 2.66666 2.88098 8.63619 2.88098 16C2.88098 23.3638 8.85052 29.3333 16.2143 29.3333Z" fill="#76D8C3"/>
<path d="M10.6699 20.1644C10.7032 20.297 11.5351 23.4081 16.2143 23.4081C20.8943 23.4081 21.7255 20.297 21.7588 20.1644C21.7782 20.0862 21.7716 20.0038 21.7399 19.9297C21.7082 19.8556 21.6532 19.7939 21.5832 19.754C21.5129 19.7142 21.4316 19.6983 21.3515 19.7086C21.2714 19.7189 21.1968 19.7548 21.1388 19.811C21.1247 19.8251 19.6914 21.1858 16.2143 21.1858C12.7373 21.1858 11.3032 19.8251 11.2899 19.8118C11.2325 19.7551 11.1583 19.7186 11.0784 19.7078C10.9985 19.697 10.9173 19.7124 10.8469 19.7518C10.7763 19.7917 10.7208 19.8536 10.6888 19.9282C10.6568 20.0027 10.6502 20.0857 10.6699 20.1644Z" fill="white"/>
<path d="M11.7701 15.2585C12.7928 15.2585 13.6219 14.0978 13.6219 12.6659C13.6219 11.2341 12.7928 10.0733 11.7701 10.0733C10.7473 10.0733 9.9182 11.2341 9.9182 12.6659C9.9182 14.0978 10.7473 15.2585 11.7701 15.2585Z" fill="white"/>
<path d="M20.6584 15.2585C21.6811 15.2585 22.5102 14.0978 22.5102 12.6659C22.5102 11.2341 21.6811 10.0733 20.6584 10.0733C19.6356 10.0733 18.8065 11.2341 18.8065 12.6659C18.8065 14.0978 19.6356 15.2585 20.6584 15.2585Z" fill="white"/>
</g>
</g>
</svg>
