<svg width="32" height="32" viewBox="0 0 32 32" fill="none" xmlns="http://www.w3.org/2000/svg">
<g id="1.TH.Emojis">
<g id="Vector">
<path d="M29.3334 16C29.3334 23.3637 23.3638 29.3334 16.0001 29.3334C8.63712 29.3334 2.66675 23.3637 2.66675 16C2.66675 8.63706 8.63712 2.66669 16.0001 2.66669C23.3638 2.66669 29.3334 8.63706 29.3334 16Z" fill="#FFD453"/>
<path d="M11.1853 17.4815C12.208 17.4815 13.0371 16.3208 13.0371 14.8889C13.0371 13.4571 12.208 12.2963 11.1853 12.2963C10.1625 12.2963 9.33342 13.4571 9.33342 14.8889C9.33342 16.3208 10.1625 17.4815 11.1853 17.4815Z" fill="white"/>
<path d="M20.8149 17.4815C21.8376 17.4815 22.6667 16.3208 22.6667 14.8889C22.6667 13.4571 21.8376 12.2963 20.8149 12.2963C19.7921 12.2963 18.963 13.4571 18.963 14.8889C18.963 16.3208 19.7921 17.4815 20.8149 17.4815Z" fill="white"/>
<path d="M21.1853 21.9259H10.8149C10.406 21.9259 10.0742 21.5948 10.0742 21.1852C10.0742 20.7756 10.406 20.4445 10.8149 20.4445H21.1853C21.5949 20.4445 21.926 20.7756 21.926 21.1852C21.926 21.5948 21.5949 21.9259 21.1853 21.9259Z" fill="white"/>
</g>
</g>
</svg>
