<svg width="33" height="32" viewBox="0 0 33 32" fill="none" xmlns="http://www.w3.org/2000/svg">
<g id="1.TH.Emojis">
<g id="Vector">
<path d="M29.9047 16C29.9047 23.3637 23.9351 29.3333 16.5714 29.3333C9.20841 29.3333 3.23804 23.3637 3.23804 16C3.23804 8.63703 9.20841 2.66666 16.5714 2.66666C23.9351 2.66666 29.9047 8.63703 29.9047 16Z" fill="#FF6666"/>
<path d="M22.1158 24.7992C22.0825 24.6667 21.2506 21.5555 16.5714 21.5555C11.8914 21.5555 11.0603 24.6667 11.0269 24.7992C11.0075 24.8774 11.0141 24.9598 11.0458 25.0339C11.0775 25.108 11.1325 25.1697 11.2025 25.2096C11.2729 25.2491 11.3541 25.2649 11.4341 25.2546C11.5142 25.2444 11.5888 25.2086 11.6469 25.1526C11.661 25.1385 13.0943 23.7778 16.5714 23.7778C20.0484 23.7778 21.4825 25.1385 21.4958 25.1518C21.5532 25.2085 21.6274 25.245 21.7073 25.2558C21.7872 25.2667 21.8684 25.2512 21.9388 25.2118C22.0094 25.1719 22.065 25.11 22.0969 25.0354C22.1289 24.9609 22.1356 24.8779 22.1158 24.7992ZM14.8729 15.4763C12.4617 13.0652 8.58693 13.037 8.42322 13.037C8.23249 13.0455 8.05236 13.1271 7.92035 13.2651C7.78833 13.403 7.7146 13.5865 7.7145 13.7774C7.71441 13.9683 7.78796 14.1519 7.91984 14.29C8.05171 14.428 8.23176 14.5099 8.42248 14.5185C8.44396 14.5185 9.84841 14.5348 11.3729 15.0644C10.9336 15.5385 10.6454 16.2748 10.6454 17.1111C10.6454 18.5437 11.4743 19.7037 12.4973 19.7037C13.5203 19.7037 14.3491 18.5437 14.3491 17.1111C14.3491 16.9822 14.3351 16.8592 14.3217 16.7355C14.3314 16.7355 14.3403 16.7407 14.3491 16.7407C14.4958 16.7411 14.6392 16.6978 14.7612 16.6165C14.8832 16.5351 14.9783 16.4194 15.0345 16.2839C15.0906 16.1484 15.1052 15.9993 15.0764 15.8555C15.0476 15.7117 14.9768 15.5797 14.8729 15.4763ZM24.7195 13.037C24.5558 13.037 20.6817 13.0652 18.2699 15.4763C18.166 15.5797 18.0951 15.7117 18.0663 15.8555C18.0376 15.9993 18.0522 16.1484 18.1083 16.2839C18.1644 16.4194 18.2595 16.5351 18.3815 16.6165C18.5035 16.6978 18.647 16.7411 18.7936 16.7407C18.8032 16.7407 18.8114 16.7355 18.8203 16.7355C18.8084 16.8592 18.7936 16.9822 18.7936 17.1111C18.7936 18.5437 19.6225 19.7037 20.6454 19.7037C21.6684 19.7037 22.4973 18.5437 22.4973 17.1111C22.4973 16.2748 22.2091 15.5385 21.7699 15.0644C22.7217 14.7396 23.7159 14.5557 24.721 14.5185C24.8183 14.5184 24.9146 14.4992 25.0044 14.4618C25.0942 14.4245 25.1758 14.3699 25.2446 14.301C25.3133 14.2322 25.3678 14.1505 25.4049 14.0606C25.442 13.9706 25.4611 13.8743 25.461 13.777C25.4609 13.6797 25.4416 13.5834 25.4043 13.4936C25.367 13.4038 25.3124 13.3222 25.2435 13.2535C25.1747 13.1847 25.0929 13.1303 25.003 13.0931C24.9131 13.056 24.8168 13.0369 24.7195 13.037Z" fill="white"/>
</g>
</g>
</svg>
