<svg width="33" height="32" viewBox="0 0 33 32" fill="none" xmlns="http://www.w3.org/2000/svg">
<g id="1.TH.Emojis">
<g id="Vector">
<path d="M29.7619 16C29.7619 23.3637 23.7923 29.3334 16.4285 29.3334C9.06559 29.3334 3.09521 23.3637 3.09521 16C3.09521 8.63706 9.06559 2.66669 16.4285 2.66669C23.7923 2.66669 29.7619 8.63706 29.7619 16Z" fill="#34A969"/>
<path d="M11.6137 16C12.6365 16 13.4656 14.176 13.4656 11.9259C13.4656 9.6759 12.6365 7.85187 11.6137 7.85187C10.591 7.85187 9.76188 9.6759 9.76188 11.9259C9.76188 14.176 10.591 16 11.6137 16Z" fill="white"/>
<path d="M21.2434 16C22.2661 16 23.0952 14.176 23.0952 11.9259C23.0952 9.6759 22.2661 7.85187 21.2434 7.85187C20.2206 7.85187 19.3915 9.6759 19.3915 11.9259C19.3915 14.176 20.2206 16 21.2434 16Z" fill="white"/>
<path d="M16.4285 18.963C13.7448 18.963 11.9641 18.6504 9.76188 18.2222C9.25892 18.1252 8.2804 18.2222 8.2804 19.7037C8.2804 22.6667 11.6841 26.3704 16.4285 26.3704C21.1723 26.3704 24.5767 22.6667 24.5767 19.7037C24.5767 18.2222 23.5982 18.1245 23.0952 18.2222C20.893 18.6504 19.1123 18.963 16.4285 18.963Z" fill="white"/>
</g>
</g>
</svg>
