<svg width="33" height="32" viewBox="0 0 33 32" fill="none" xmlns="http://www.w3.org/2000/svg">
<g id="1.TH.Emojis">
<g id="Vector">
<path d="M16.7857 29.3333C24.1495 29.3333 30.1191 23.3638 30.1191 16C30.1191 8.63619 24.1495 2.66666 16.7857 2.66666C9.42193 2.66666 3.45239 8.63619 3.45239 16C3.45239 23.3638 9.42193 29.3333 16.7857 29.3333Z" fill="#EE9004"/>
<path d="M22.3302 22.9474C22.2968 22.8148 21.465 19.7037 16.7857 19.7037C12.1057 19.7037 11.2746 22.8148 11.2413 22.9474C11.2005 23.1081 11.2731 23.2748 11.4168 23.3578C11.5613 23.44 11.742 23.4155 11.8613 23.3007C11.8754 23.2867 13.3087 21.9259 16.7857 21.9259C20.2628 21.9259 21.6968 23.2867 21.7102 23.3C21.7813 23.3704 21.8761 23.4074 21.9709 23.4074C22.0331 23.4074 22.0961 23.3918 22.1531 23.36C22.2983 23.277 22.3709 23.1089 22.3302 22.9474Z" fill="white"/>
<path d="M12.3413 15.2592C13.364 15.2592 14.1931 14.0985 14.1931 12.6667C14.1931 11.2348 13.364 10.0741 12.3413 10.0741C11.3185 10.0741 10.4894 11.2348 10.4894 12.6667C10.4894 14.0985 11.3185 15.2592 12.3413 15.2592Z" fill="white"/>
<path d="M21.2302 15.2592C22.2529 15.2592 23.082 14.0985 23.082 12.6667C23.082 11.2348 22.2529 10.0741 21.2302 10.0741C20.2074 10.0741 19.3783 11.2348 19.3783 12.6667C19.3783 14.0985 20.2074 15.2592 21.2302 15.2592Z" fill="white"/>
</g>
</g>
</svg>
