<svg width="24" height="25" viewBox="0 0 24 25" fill="none" xmlns="http://www.w3.org/2000/svg">
<g id="mdi:web">
<path id="Vector" d="M16.36 14.9502C16.44 14.2902 16.5 13.6302 16.5 12.9502C16.5 12.2702 16.44 11.6102 16.36 10.9502H19.74C19.9 11.5902 20 12.2602 20 12.9502C20 13.6402 19.9 14.3102 19.74 14.9502M14.59 20.5102C15.19 19.4002 15.65 18.2002 15.97 16.9502H18.92C17.9512 18.6185 16.4141 19.8822 14.59 20.5102ZM14.34 14.9502H9.66C9.56 14.2902 9.5 13.6302 9.5 12.9502C9.5 12.2702 9.56 11.6002 9.66 10.9502H14.34C14.43 11.6002 14.5 12.2702 14.5 12.9502C14.5 13.6302 14.43 14.2902 14.34 14.9502ZM12 20.9102C11.17 19.7102 10.5 18.3802 10.09 16.9502H13.91C13.5 18.3802 12.83 19.7102 12 20.9102ZM8 8.9502H5.08C6.03864 7.27723 7.57466 6.01144 9.4 5.3902C8.8 6.5002 8.35 7.7002 8 8.9502ZM5.08 16.9502H8C8.35 18.2002 8.8 19.4002 9.4 20.5102C7.57827 19.8825 6.04429 18.6184 5.08 16.9502ZM4.26 14.9502C4.1 14.3102 4 13.6402 4 12.9502C4 12.2602 4.1 11.5902 4.26 10.9502H7.64C7.56 11.6102 7.5 12.2702 7.5 12.9502C7.5 13.6302 7.56 14.2902 7.64 14.9502M12 4.9802C12.83 6.1802 13.5 7.5202 13.91 8.9502H10.09C10.5 7.5202 11.17 6.1802 12 4.9802ZM18.92 8.9502H15.97C15.6565 7.71181 15.1931 6.5163 14.59 5.3902C16.43 6.0202 17.96 7.2902 18.92 8.9502ZM12 2.9502C6.47 2.9502 2 7.4502 2 12.9502C2 15.6024 3.05357 18.1459 4.92893 20.0213C5.85752 20.9498 6.95991 21.6864 8.17317 22.189C9.38642 22.6915 10.6868 22.9502 12 22.9502C14.6522 22.9502 17.1957 21.8966 19.0711 20.0213C20.9464 18.1459 22 15.6024 22 12.9502C22 11.637 21.7413 10.3366 21.2388 9.12336C20.7362 7.9101 19.9997 6.80771 19.0711 5.87913C18.1425 4.95054 17.0401 4.21395 15.8268 3.7114C14.6136 3.20885 13.3132 2.9502 12 2.9502Z" fill="white"/>
</g>
</svg>
