<svg width="24" height="25" viewBox="0 0 24 25" fill="none" xmlns="http://www.w3.org/2000/svg">
<g id="pajamas:linkedin">
<path id="Vector" fill-rule="evenodd" clip-rule="evenodd" d="M4.5 2.4502C3.70435 2.4502 2.94129 2.76627 2.37868 3.32888C1.81607 3.89148 1.5 4.65455 1.5 5.4502V20.4502C1.5 21.2458 1.81607 22.0089 2.37868 22.5715C2.94129 23.1341 3.70435 23.4502 4.5 23.4502H19.5C20.2956 23.4502 21.0587 23.1341 21.6213 22.5715C22.1839 22.0089 22.5 21.2458 22.5 20.4502V5.4502C22.5 4.65455 22.1839 3.89148 21.6213 3.32888C21.0587 2.76627 20.2956 2.4502 19.5 2.4502H4.5ZM6.153 8.8957C6.6284 8.8957 7.08433 8.70684 7.42049 8.37068C7.75665 8.03452 7.9455 7.5786 7.9455 7.1032C7.9455 6.6278 7.75665 6.17187 7.42049 5.83571C7.08433 5.49955 6.6284 5.3107 6.153 5.3107C5.6776 5.3107 5.22167 5.49955 4.88551 5.83571C4.54935 6.17187 4.3605 6.6278 4.3605 7.1032C4.3605 7.5786 4.54935 8.03452 4.88551 8.37068C5.22167 8.70684 5.6776 8.8957 6.153 8.8957ZM7.653 20.1697V10.3012H4.653V20.1697H7.653ZM9.645 10.3012H12.645V11.6227C13.0875 10.9297 14.0595 9.9967 15.867 9.9967C18.024 9.9967 19.1955 11.4262 19.1955 14.1457C19.1955 14.2762 19.2075 14.8717 19.2075 14.8717V20.1682H16.2075V14.8732C16.2075 14.1457 16.0545 12.7162 14.4375 12.7162C12.819 12.7162 12.6825 14.5132 12.645 15.6892V20.1682H9.645V10.3012Z" fill="white"/>
</g>
</svg>
