<svg width="36" height="36" viewBox="0 0 36 36" fill="none" xmlns="http://www.w3.org/2000/svg">
<g id="Group 632970">
<path id="Vector" fill-rule="evenodd" clip-rule="evenodd" d="M36 6.75927C36 3.02873 32.9697 0 29.2389 0H6.7611C3.03032 0 0 3.02873 0 6.75927V28.4458C0 32.1754 3.03032 35.2051 6.76113 35.2051H29.2389C32.9697 35.2051 36 32.1754 36 28.4458L36 6.75927Z" fill="#0C3B7C"/>
<path id="Vector_2" fill-rule="evenodd" clip-rule="evenodd" d="M0.00195312 21.875H17.9818V35.2089H0.0019663L0.00195312 21.875Z" fill="#0C3B7C"/>
<g id="Group">
<path id="Vector_3" d="M16.3609 23.3006L13.4614 23.2977V19.8309C13.4614 19.0902 13.7488 18.7047 14.3827 18.6166H16.3609C17.7717 18.6166 18.6843 19.506 18.6843 20.9456C18.6843 22.4241 17.7948 23.2991 16.3609 23.3006ZM13.4614 13.9499V13.0374C13.4614 12.2389 13.7993 11.8592 14.5401 11.8101H16.0245C17.2966 11.8101 18.0591 12.571 18.0591 13.846C18.0591 14.8163 17.5364 15.9497 16.0707 15.9497H13.4614V13.9499ZM20.0633 17.4095L19.5392 17.1149L19.9969 16.7236C20.5298 16.2659 21.4221 15.2364 21.4221 13.4604C21.4221 10.7402 19.3125 8.98582 16.0476 8.98582H12.3221V8.98438H11.8975C10.9301 9.02048 10.1546 9.8074 10.1445 10.7806V26.2158H16.1212C19.75 26.2158 22.0922 24.2405 22.0922 21.1809C22.0922 19.5334 21.3355 18.1256 20.0633 17.4095Z" fill="white"/>
<path id="Vector_4" d="M23.6484 24.0784C23.6484 22.8993 24.5995 21.9453 25.7713 21.9453C26.946 21.9453 27.9015 22.8993 27.9015 24.0784C27.9015 25.256 26.946 26.2114 25.7713 26.2114C24.5995 26.2114 23.6484 25.256 23.6484 24.0784Z" fill="#00BAFC"/>
</g>
</g>
</svg>
