<svg width="35" height="36" viewBox="0 0 35 36" fill="none" xmlns="http://www.w3.org/2000/svg">
<g id="Group 632971">
<path id="Vector" d="M35.0001 18.4083C35.0001 17.132 34.8865 15.9047 34.6755 14.7266H17.8574V21.6974H27.4677C27.0457 23.9392 25.7794 25.8373 23.8801 27.1137V31.6463H29.6755C33.0521 28.5045 35.0001 23.8901 35.0001 18.4083Z" fill="#4285F4"/>
<path id="Vector_2" d="M17.8574 36.0009C22.6788 36.0009 26.721 34.3973 29.6755 31.6483L23.8801 27.1156C22.2892 28.1956 20.26 28.8501 17.8574 28.8501C13.2146 28.8501 9.26985 25.692 7.85753 21.4375H1.91602V26.0847C4.8543 31.9592 10.877 36.0009 17.8574 36.0009Z" fill="#34A853"/>
<path id="Vector_3" d="M7.85708 21.4246C7.49994 20.3446 7.2889 19.1992 7.2889 18.0047C7.2889 16.8101 7.49994 15.6647 7.85708 14.5847V9.9375H1.91557C0.698046 12.3593 0 15.092 0 18.0047C0 20.9173 0.698046 23.65 1.91557 26.0718L6.54216 22.4391L7.85708 21.4246Z" fill="#FBBC05"/>
<path id="Vector_4" d="M17.8574 7.16717C20.4873 7.16717 22.8249 8.08352 24.6918 9.85077L29.8054 4.6963C26.7048 1.78361 22.6788 0 17.8574 0C10.877 0 4.8543 4.04176 1.91602 9.93259L7.85753 14.5798C9.26985 10.3253 13.2146 7.16717 17.8574 7.16717Z" fill="#EA4335"/>
</g>
</svg>
