<svg width="36" height="36" viewBox="0 0 36 36" fill="none" xmlns="http://www.w3.org/2000/svg">
<g id="Group">
<path id="Vector" d="M18 36C27.9411 36 36 27.9411 36 18C36 8.05887 27.9411 0 18 0C8.05887 0 0 8.05887 0 18C0 27.9411 8.05887 36 18 36Z" fill="#34E0A1"/>
<path id="Vector_2" d="M29.1184 14.4853L31.2905 12.1221H26.4738C24.0624 10.4749 21.1502 9.51562 18.0007 9.51562C14.8551 9.51562 11.9511 10.477 9.54366 12.1221H4.71484L6.88691 14.4853C5.55554 15.7 4.7209 17.4497 4.7209 19.3925C4.7209 23.0589 7.69345 26.0314 11.3598 26.0314C13.1015 26.0314 14.6883 25.3597 15.8729 24.2616L18.0007 26.5785L20.1285 24.2636C21.3131 25.3617 22.8979 26.0314 24.6396 26.0314C28.306 26.0314 31.2825 23.0589 31.2825 19.3925C31.2845 17.4477 30.4499 15.698 29.1184 14.4853ZM11.3618 23.8855C8.87997 23.8855 6.86885 21.8744 6.86885 19.3925C6.86885 16.9107 8.88002 14.8996 11.3618 14.8996C13.8436 14.8996 15.8547 16.9107 15.8547 19.3925C15.8547 21.8744 13.8436 23.8855 11.3618 23.8855ZM18.0027 19.2618C18.0027 16.3054 15.8528 13.7673 13.015 12.6832C14.5495 12.0416 16.2328 11.6857 18.0007 11.6857C19.7685 11.6857 21.4538 12.0416 22.9884 12.6832C20.1526 13.7693 18.0027 16.3054 18.0027 19.2618ZM24.6416 23.8855C22.1598 23.8855 20.1486 21.8744 20.1486 19.3925C20.1486 16.9107 22.1598 14.8996 24.6416 14.8996C27.1234 14.8996 29.1345 16.9107 29.1345 19.3925C29.1345 21.8744 27.1234 23.8855 24.6416 23.8855ZM24.6416 17.0354C23.3403 17.0354 22.2865 18.0893 22.2865 19.3905C22.2865 20.6917 23.3403 21.7456 24.6416 21.7456C25.9428 21.7456 26.9967 20.6917 26.9967 19.3905C26.9966 18.0913 25.9428 17.0354 24.6416 17.0354ZM13.7169 19.3925C13.7169 20.6938 12.663 21.7476 11.3618 21.7476C10.0606 21.7476 9.00671 20.6938 9.00671 19.3925C9.00671 18.0913 10.0606 17.0374 11.3618 17.0374C12.663 17.0354 13.7169 18.0913 13.7169 19.3925Z" fill="black"/>
</g>
</svg>
